<?xml version="1.0" encoding="UTF-8" standalone="no"?>
<svg
   xmlns:dc="http://purl.org/dc/elements/1.1/"
   xmlns:cc="http://creativecommons.org/ns#"
   xmlns:rdf="http://www.w3.org/1999/02/22-rdf-syntax-ns#"
   xmlns:svg="http://www.w3.org/2000/svg"
   xmlns="http://www.w3.org/2000/svg"
   xmlns:sodipodi="http://sodipodi.sourceforge.net/DTD/sodipodi-0.dtd"
   xmlns:inkscape="http://www.inkscape.org/namespaces/inkscape"
   inkscape:export-ydpi="500"
   inkscape:export-xdpi="500"
   inkscape:export-filename="C:\Users\Lord Adwond\Desktop\network.png"
   inkscape:version="1.0 (4035a4fb49, 2020-05-01)"
   sodipodi:docname="network.svg"
   id="svg8"
   version="1.1"
   viewBox="0 0 158.75 158.75"
   height="600"
   width="600">
  <defs
     id="defs2" />
  <sodipodi:namedview
     inkscape:window-maximized="1"
     inkscape:window-y="-9"
     inkscape:window-x="-9"
     inkscape:window-height="1001"
     inkscape:window-width="1920"
     units="px"
     showgrid="false"
     inkscape:document-rotation="0"
     inkscape:current-layer="layer1"
     inkscape:document-units="mm"
     inkscape:cy="247.12554"
     inkscape:cx="108.56698"
     inkscape:zoom="0.98994949"
     inkscape:pageshadow="2"
     inkscape:pageopacity="0.0"
     borderopacity="1.0"
     bordercolor="#666666"
     pagecolor="#ffffff"
     id="base" />
  <metadata
     id="metadata5">
    <rdf:RDF>
      <cc:Work
         rdf:about="">
        <dc:format>image/svg+xml</dc:format>
        <dc:type
           rdf:resource="http://purl.org/dc/dcmitype/StillImage" />
        <dc:title></dc:title>
      </cc:Work>
    </rdf:RDF>
  </metadata>
  <g
     id="layer1"
     inkscape:groupmode="layer"
     inkscape:label="Layer 1">
    <rect
       y="0.27476999"
       x="0.27476999"
       height="158.20045"
       width="158.20045"
       id="rect1518"
       style="fill:#e6e6e6;stroke:#1a1a1a;stroke-width:0.54954" />
    <ellipse
       ry="3.226325"
       rx="2.7196889"
       cy="52.625145"
       cx="10.424461"
       id="path1402"
       style="fill:#000000;stroke:#1a1a1a;stroke-width:0.172495" />
    <ellipse
       ry="3.226325"
       rx="2.7196889"
       style="fill:#000000;stroke:#1a1a1a;stroke-width:0.172495"
       id="path1402-6"
       cx="10.744425"
       cy="64.96109" />
    <ellipse
       ry="3.226325"
       rx="2.7196889"
       style="fill:#000000;stroke:#1a1a1a;stroke-width:0.172495"
       id="path1402-64"
       cx="10.744425"
       cy="77.297043" />
    <ellipse
       ry="3.226325"
       rx="2.7196889"
       style="fill:#000000;stroke:#1a1a1a;stroke-width:0.172495"
       id="path1402-2"
       cx="10.904407"
       cy="89.253426" />
    <ellipse
       ry="3.226325"
       rx="2.7196889"
       cy="101.58937"
       cx="11.224369"
       id="path1402-6-0"
       style="fill:#000000;stroke:#1a1a1a;stroke-width:0.172495" />
    <ellipse
       style="fill:#000000;stroke:#1a1a1a;stroke-width:0.172495"
       id="path1402-25"
       cx="52.786682"
       cy="20.151899"
       rx="2.7196891"
       ry="3.2263253" />
    <ellipse
       cy="32.487843"
       cx="53.106647"
       id="path1402-6-9"
       style="fill:#000000;stroke:#1a1a1a;stroke-width:0.172495"
       rx="2.7196891"
       ry="3.2263253" />
    <ellipse
       cy="44.823795"
       cx="53.106647"
       id="path1402-64-8"
       style="fill:#000000;stroke:#1a1a1a;stroke-width:0.172495"
       rx="2.7196891"
       ry="3.2263253" />
    <ellipse
       cy="56.780178"
       cx="53.266628"
       id="path1402-2-4"
       style="fill:#000000;stroke:#1a1a1a;stroke-width:0.172495"
       rx="2.7196891"
       ry="3.2263253" />
    <ellipse
       style="fill:#000000;stroke:#1a1a1a;stroke-width:0.172495"
       id="path1402-6-0-0"
       cx="53.58659"
       cy="69.116127"
       rx="2.7196891"
       ry="3.2263253" />
    <ellipse
       style="fill:#000000;stroke:#1a1a1a;stroke-width:0.172495"
       id="path1402-646"
       cx="53.32122"
       cy="82.425697"
       rx="2.7196891"
       ry="3.2263253" />
    <ellipse
       cy="94.761642"
       cx="53.641186"
       id="path1402-6-92"
       style="fill:#000000;stroke:#1a1a1a;stroke-width:0.172495"
       rx="2.7196891"
       ry="3.2263253" />
    <ellipse
       cy="107.0976"
       cx="53.641186"
       id="path1402-64-9"
       style="fill:#000000;stroke:#1a1a1a;stroke-width:0.172495"
       rx="2.7196891"
       ry="3.2263253" />
    <ellipse
       cy="119.05398"
       cx="53.801167"
       id="path1402-2-1"
       style="fill:#000000;stroke:#1a1a1a;stroke-width:0.172495"
       rx="2.7196891"
       ry="3.2263253" />
    <ellipse
       style="fill:#000000;stroke:#1a1a1a;stroke-width:0.172495"
       id="path1402-6-0-5"
       cx="54.121128"
       cy="131.38992"
       rx="2.7196891"
       ry="3.2263253" />
    <ellipse
       style="fill:#000000;stroke:#1a1a1a;stroke-width:0.172495"
       id="path1402-61"
       cx="118.4004"
       cy="76.439087"
       rx="2.7196891"
       ry="3.2263253" />
    <path
       id="path1502"
       d="M 52.919365,20.579753 10.95805,53.186636 52.384827,32.339613 11.22532,53.453905 53.186636,44.634012 11.22532,53.453905 52.384827,56.661139 10.690781,53.721174 52.384827,68.153729 11.492589,53.721174 53.453905,83.120822 10.690781,54.255714 52.919365,93.811602 10.95805,53.186636 53.988443,107.17508 10.423511,53.186636 53.453905,118.66767 10.690781,53.186636 54.522983,131.76387"
       style="fill:none;stroke:#000000;stroke-width:0.264583px;stroke-linecap:butt;stroke-linejoin:miter;stroke-opacity:1" />
    <path
       id="path1504"
       d="M 52.919365,20.579753 10.423511,65.213764 52.384827,32.339613 10.423511,65.748304 53.186636,44.634012 11.22532,65.748304 52.384827,56.661139 11.22532,65.748304 52.384827,68.153729 10.690781,65.481032 53.453905,83.120822 10.690781,66.282842 52.919365,93.811602 11.22532,64.946495 53.988443,107.17508 10.690781,65.748304 53.453905,118.66767 11.22532,65.213764 54.522983,131.76387"
       style="fill:none;stroke:#000000;stroke-width:0.264583px;stroke-linecap:butt;stroke-linejoin:miter;stroke-opacity:1" />
    <path
       id="path1510"
       d="M 52.919365,20.579753 9.621703,76.973622 52.384827,32.339613 9.3544333,77.240894 53.186636,44.634012 8.8198943,77.240894 52.384827,56.661139 9.621703,76.973622 52.384827,68.153729 9.0871639,77.508163 53.453905,83.120822 9.8889724,77.508163 52.919365,93.811602 10.423511,77.775431 53.988443,107.17508 10.156242,77.240894 53.453905,118.66767 10.423511,77.508163 54.522983,131.76387 10.156242,77.508163 H 9.621703"
       style="fill:none;stroke:#000000;stroke-width:0.264583px;stroke-linecap:butt;stroke-linejoin:miter;stroke-opacity:1" />
    <path
       id="path1512"
       d="M 52.919365,20.579753 10.690781,89.802561 52.384827,32.339613 11.759859,89.53529 53.186636,44.634012 10.423511,90.604368 52.384827,56.661139 11.22532,90.604368 52.384827,68.153729 10.423511,90.337099 53.453905,83.120822 11.22532,90.06983 52.919365,93.811602 11.22532,90.337099 53.988443,107.17508 10.690781,90.337099 53.453905,118.66767 11.22532,89.53529 54.522983,131.76387 11.492589,89.53529"
       style="fill:none;stroke:#000000;stroke-width:0.264583px;stroke-linecap:butt;stroke-linejoin:miter;stroke-opacity:1" />
    <path
       id="path1514"
       d="M 52.919365,20.579753 11.759859,102.6315 52.384827,32.339613 12.027129,102.36423 53.186636,44.634012 11.759859,102.36423 52.384827,56.661139 11.759859,102.09696 52.384827,68.153729 10.95805,103.16604 53.453905,83.120822 11.22532,102.6315 52.919365,93.811602 11.492589,102.89877 53.988443,107.17508 11.492589,102.6315 53.453905,118.66767 12.027129,102.6315 54.522983,131.76387"
       style="fill:none;stroke:#000000;stroke-width:0.264583px;stroke-linecap:butt;stroke-linejoin:miter;stroke-opacity:1" />
    <path
       id="path1516"
       d="M 52.919365,20.579753 118.13313,76.171816 52.384827,32.339613 117.86586,76.171816 53.186636,44.634012 117.86586,76.171816 52.384827,56.661139 118.4004,76.706353 52.384827,68.153729 117.59859,76.439084 53.453905,83.120822 118.13313,76.973622 52.919365,93.811602 118.4004,76.973622 53.988443,107.17508 117.86586,77.508163 53.453905,118.66767 118.13313,78.0427 54.522983,131.76387"
       style="fill:none;stroke:#000000;stroke-width:0.264583px;stroke-linecap:butt;stroke-linejoin:miter;stroke-opacity:1" />
  </g>
</svg>
